<svg width="32" height="32" viewBox="0 0 32 32" fill="none" xmlns="http://www.w3.org/2000/svg">
  <!-- Car body -->
  <path d="M4 18h24c1.1 0 2 .9 2 2v6c0 1.1-.9 2-2 2H4c-1.1 0-2-.9-2-2v-6c0-1.1.9-2 2-2z" fill="#2563eb"/>
  
  <!-- Car roof -->
  <path d="M8 18l2-6h12l2 6H8z" fill="#1d4ed8"/>
  
  <!-- Windows -->
  <path d="M10 14h4v3h-4z" fill="#60a5fa" opacity="0.8"/>
  <path d="M18 14h4v3h-4z" fill="#60a5fa" opacity="0.8"/>
  
  <!-- Wheels -->
  <circle cx="10" cy="24" r="3" fill="#374151"/>
  <circle cx="22" cy="24" r="3" fill="#374151"/>
  <circle cx="10" cy="24" r="1.5" fill="#9ca3af"/>
  <circle cx="22" cy="24" r="1.5" fill="#9ca3af"/>
  
  <!-- Headlight -->
  <circle cx="6" cy="20" r="1" fill="#fbbf24"/>
  
  <!-- Brand accent -->
  <rect x="14" y="15" width="4" height="1" fill="#3b82f6"/>
</svg> 